<svg xmlns="http://www.w3.org/2000/svg" xmlns:xlink="http://www.w3.org/1999/xlink" width="227" height="227" version="1.1" viewBox="0 0 227 227"><title>Icon</title><desc>Created with Sketch.</desc><g id="Icon" fill="none" fill-rule="evenodd" stroke="none" stroke-width="1"><rect width="227" height="227" x="0" y="0" fill="#FFF"/><g id="Fish"><g transform="translate(24.000000, 66.000000) translate(0.000000, 0.000000)"><g id="Tail" fill-rule="nonzero" transform="translate(99.999259, 0.000000)"><polygon id="4" fill="#0095D5" points="29.167 95 78.795 95 53.981 52.462"/><polygon id="3" fill="#3087DB" points="0 92.538 49.628 92.538 24.814 50" transform="translate(24.814074, 71.269206) scale(1, -1) translate(-24.814074, -71.269206)"/><polygon id="2" fill="#557CDF" points="0 45 49.628 45 24.814 2.462"/><polygon id="1" fill="#806EE3" points="29.167 42.538 78.795 42.538 53.981 0" transform="translate(53.980741, 21.269206) scale(1, -1) translate(-53.980741, -21.269206)"/></g><g id="Head" fill-rule="nonzero" transform="translate(0.000000, 6.000000)"><polygon id="6" fill="#F88909" points="51.333 39 93.961 39 72.647 2.462"/><polygon id="5" fill="#E47550" points="72.647 44 51.333 80.538 93.961 80.538" transform="translate(72.647408, 62.269206) scale(1, -1) translate(-72.647408, -62.269206)"/><polygon id="4" fill="#C757BC" points="25.667 83 68.295 83 46.981 46.462"/><polygon id="3" fill="#0095D5" points="0 80.538 42.628 80.538 21.314 44" transform="translate(21.314074, 62.269206) scale(1, -1) translate(-21.314074, -62.269206)"/><polygon id="2" fill="#3087DB" points="0 39 42.628 39 21.314 2.462"/><polygon id="1" fill="#806EE3" points="25.667 36.538 68.295 36.538 46.981 0" transform="translate(46.980741, 18.269206) scale(1, -1) translate(-46.980741, -18.269206)"/></g></g></g></g></svg>